<?xml version="1.0" encoding="UTF-8"?>
<svg id="Layer_1" xmlns="http://www.w3.org/2000/svg" xmlns:xlink="http://www.w3.org/1999/xlink" version="1.1" viewBox="0 0 385.72 105.2">
  <!-- Generator: Adobe Illustrator 29.1.0, SVG Export Plug-In . SVG Version: 2.1.0 Build 142)  -->
  <defs>
    <style>
      .st0 {
        fill: #231f20;
      }

      .st1 {
        fill: url(#radial-gradient);
      }
    </style>
    <radialGradient id="radial-gradient" cx="27.75" cy="1.57" fx="27.75" fy="1.57" r="91.49" gradientTransform="translate(0 10.25) scale(1 1.01)" gradientUnits="userSpaceOnUse">
      <stop offset="0" stop-color="#284379"/>
      <stop offset=".59" stop-color="#336fb7"/>
      <stop offset=".87" stop-color="#3fa068"/>
      <stop offset="1" stop-color="#44b549"/>
    </radialGradient>
  </defs>
  <path class="st1" d="M92.5,42.88v-12.21c0-7.24-5.81-13.14-12.95-13.14h-38.14c-7.14,0-12.95,5.89-12.95,13.14v49.23h-6.97c-2.11,0-3.83,1.74-3.83,3.88s1.71,3.88,3.83,3.88h70.76c7.14,0,12.95-5.89,12.95-13.14v-18.51c0-7.16-5.67-12.99-12.7-13.13ZM97.54,74.53c0,2.96-2.38,5.37-5.3,5.37h-56.14V30.67c0-2.96,2.38-5.37,5.3-5.37h38.14c2.92,0,5.3,2.41,5.3,5.37v12.2h-29.94c-7.14,0-12.95,5.89-12.95,13.14s5.81,13.14,12.95,13.14h25.9c2.11,0,3.83-1.74,3.83-3.88s-1.71-3.88-3.83-3.88h-25.9c-2.92,0-5.3-2.41-5.3-5.37s2.38-5.37,5.3-5.37h37.34c2.92,0,5.3,2.41,5.3,5.37v18.51Z"/>
  <g>
    <g>
      <path class="st0" d="M144.35,19.41c1.91,1.36,2.86,3.22,2.86,5.57,0,1.68-.48,3.13-1.44,4.33-.96,1.2-2.28,2.01-3.97,2.41,2.07.38,3.69,1.25,4.86,2.61,1.17,1.36,1.75,3.06,1.75,5.09,0,2.61-1.03,4.66-3.08,6.16-2.05,1.49-4.86,2.24-8.4,2.24h-14.19v-30.46h13.79c3.31,0,5.92.68,7.83,2.04ZM139.82,28.81c.87-.67,1.31-1.59,1.31-2.78s-.44-2.06-1.31-2.7c-.87-.64-2.08-.94-3.61-.91h-7.54v7.4h7.54c1.54,0,2.74-.33,3.61-1ZM140.64,41.73c1.06-.72,1.6-1.74,1.6-3.05s-.53-2.23-1.6-2.94c-1.06-.71-2.54-1.05-4.43-1.02h-7.54v8.05h7.54c1.89.03,3.37-.32,4.43-1.04Z"/>
      <path class="st0" d="M168.78,22.98c-1.67-.52-3.14-.78-4.41-.78-1.42,0-2.54.26-3.37.78-.83.52-1.24,1.25-1.24,2.18,0,.84.29,1.54.86,2.11.58.57,1.3,1.03,2.17,1.39.87.36,2.06.76,3.57,1.2,2.1.61,3.82,1.22,5.17,1.83,1.34.61,2.49,1.51,3.44,2.7.95,1.19,1.42,2.76,1.42,4.7s-.51,3.47-1.53,4.85c-1.02,1.38-2.42,2.43-4.21,3.15-1.79.73-3.84,1.09-6.14,1.09-2.42,0-4.79-.44-7.1-1.33-2.31-.88-4.32-2.07-6.03-3.55l2.48-4.96c1.57,1.42,3.33,2.54,5.28,3.35,1.95.81,3.77,1.22,5.45,1.22s2.96-.31,3.9-.94c.95-.62,1.42-1.47,1.42-2.55,0-.87-.29-1.59-.86-2.15-.58-.57-1.31-1.02-2.2-1.37-.89-.35-2.1-.74-3.64-1.17-2.1-.61-3.81-1.2-5.14-1.78-1.33-.58-2.47-1.46-3.41-2.63-.95-1.17-1.42-2.72-1.42-4.63,0-1.77.48-3.31,1.44-4.63.96-1.32,2.32-2.34,4.08-3.07,1.76-.72,3.79-1.09,6.1-1.09,2.01,0,4,.29,5.96.87,1.97.58,3.72,1.36,5.25,2.35l-2.39,5.09c-1.6-.96-3.23-1.7-4.9-2.22Z"/>
      <path class="st0" d="M196.63,22.98c-1.67-.52-3.14-.78-4.41-.78-1.42,0-2.54.26-3.37.78-.83.52-1.24,1.25-1.24,2.18,0,.84.29,1.54.86,2.11.58.57,1.3,1.03,2.17,1.39.87.36,2.06.76,3.57,1.2,2.1.61,3.82,1.22,5.17,1.83,1.34.61,2.49,1.51,3.44,2.7.95,1.19,1.42,2.76,1.42,4.7s-.51,3.47-1.53,4.85c-1.02,1.38-2.42,2.43-4.21,3.15-1.79.73-3.84,1.09-6.14,1.09-2.42,0-4.79-.44-7.09-1.33-2.31-.88-4.32-2.07-6.03-3.55l2.48-4.96c1.57,1.42,3.33,2.54,5.28,3.35,1.95.81,3.77,1.22,5.45,1.22s2.96-.31,3.9-.94c.95-.62,1.42-1.47,1.42-2.55,0-.87-.29-1.59-.86-2.15s-1.31-1.02-2.2-1.37c-.89-.35-2.1-.74-3.64-1.17-2.1-.61-3.81-1.2-5.14-1.78-1.33-.58-2.47-1.46-3.41-2.63-.95-1.17-1.42-2.72-1.42-4.63,0-1.77.48-3.31,1.44-4.63.96-1.32,2.32-2.34,4.08-3.07,1.76-.72,3.79-1.09,6.1-1.09,2.01,0,4,.29,5.96.87,1.97.58,3.72,1.36,5.26,2.35l-2.39,5.09c-1.6-.96-3.23-1.7-4.9-2.22Z"/>
    </g>
    <path class="st0" d="M143.77,62.48c-1.49-.7-3.01-1.05-4.55-1.05-1.92,0-3.68.45-5.28,1.35-1.6.9-2.85,2.15-3.77,3.73-.92,1.59-1.37,3.33-1.37,5.22s.46,3.63,1.37,5.22c.92,1.59,2.17,2.84,3.77,3.76,1.6.92,3.35,1.38,5.28,1.38,1.48,0,2.96-.32,4.46-.96,1.49-.64,2.82-1.53,3.97-2.66l3.5,3.84c-1.63,1.63-3.52,2.92-5.68,3.86-2.16.95-4.35,1.42-6.56,1.42-2.99,0-5.72-.7-8.2-2.1-2.48-1.4-4.43-3.3-5.85-5.7-1.42-2.4-2.13-5.06-2.13-7.97s.72-5.56,2.17-7.95c1.45-2.39,3.42-4.26,5.92-5.63,2.5-1.37,5.27-2.05,8.31-2.05,2.22,0,4.39.44,6.52,1.31,2.13.87,3.95,2.08,5.45,3.62l-3.46,4.28c-1.09-1.25-2.39-2.23-3.88-2.93Z"/>
    <path class="st0" d="M178.73,58.24c2.53,1.37,4.52,3.25,5.96,5.63,1.45,2.39,2.17,5.04,2.17,7.95s-.72,5.57-2.17,7.97c-1.45,2.4-3.44,4.3-5.96,5.7-2.53,1.4-5.33,2.1-8.4,2.1s-5.88-.7-8.4-2.1c-2.53-1.4-4.52-3.3-5.96-5.7-1.45-2.4-2.17-5.06-2.17-7.97s.72-5.56,2.17-7.95c1.45-2.39,3.44-4.26,5.96-5.63,2.53-1.37,5.33-2.05,8.4-2.05s5.88.68,8.4,2.05ZM165.13,62.8c-1.63.92-2.91,2.17-3.86,3.76-.95,1.59-1.42,3.34-1.42,5.26s.48,3.68,1.44,5.28c.96,1.6,2.25,2.87,3.86,3.8,1.61.93,3.36,1.4,5.25,1.4s3.59-.47,5.19-1.4c1.6-.93,2.86-2.2,3.79-3.8.93-1.6,1.4-3.36,1.4-5.28s-.47-3.68-1.4-5.26c-.93-1.59-2.2-2.84-3.79-3.76-1.6-.92-3.33-1.38-5.19-1.38s-3.65.46-5.28,1.38Z"/>
    <path class="st0" d="M212.92,56.58h5.77v30.57h-5.63l-15.96-21.05v21.05h-5.81v-30.57h5.63l16.01,21.09v-21.09Z"/>
    <path class="st0" d="M245.52,56.58h5.76v30.57h-5.63l-15.96-21.05v21.05h-5.81v-30.57h5.63l16.01,21.09v-21.09Z"/>
    <path class="st0" d="M256.48,56.58h22.75v5.11h-16.81v7.56h15.08v5.11h-15.08v7.69h17.34v5.11h-23.28v-30.57Z"/>
    <path class="st0" d="M303.58,62.48c-1.49-.7-3.01-1.05-4.54-1.05-1.92,0-3.68.45-5.28,1.35-1.6.9-2.85,2.15-3.77,3.73-.92,1.59-1.38,3.33-1.38,5.22s.46,3.63,1.38,5.22c.92,1.59,2.17,2.84,3.77,3.76,1.6.92,3.36,1.38,5.28,1.38,1.48,0,2.96-.32,4.46-.96,1.49-.64,2.82-1.53,3.97-2.66l3.5,3.84c-1.63,1.63-3.52,2.92-5.68,3.86-2.16.95-4.35,1.42-6.56,1.42-2.99,0-5.72-.7-8.2-2.1-2.48-1.4-4.43-3.3-5.85-5.7-1.42-2.4-2.13-5.06-2.13-7.97s.72-5.56,2.17-7.95c1.45-2.39,3.42-4.26,5.92-5.63,2.5-1.37,5.27-2.05,8.31-2.05,2.22,0,4.39.44,6.52,1.31,2.13.87,3.95,2.08,5.45,3.62l-3.46,4.28c-1.09-1.25-2.39-2.23-3.88-2.93Z"/>
    <path class="st0" d="M315.15,56.58h25.32v5.2h-9.67v25.37h-5.99v-25.37h-9.67v-5.2Z"/>
    <path class="st0" d="M360.58,62.21c-1.67-.52-3.14-.79-4.41-.79-1.42,0-2.54.26-3.37.79-.83.52-1.24,1.25-1.24,2.18,0,.84.29,1.55.86,2.12s1.3,1.03,2.17,1.4c.87.36,2.06.76,3.57,1.2,2.1.61,3.82,1.22,5.17,1.83,1.34.61,2.49,1.51,3.44,2.71.95,1.19,1.42,2.77,1.42,4.72s-.51,3.49-1.53,4.87c-1.02,1.38-2.42,2.44-4.21,3.17-1.79.73-3.84,1.09-6.14,1.09-2.42,0-4.79-.44-7.09-1.33-2.31-.89-4.32-2.07-6.03-3.56l2.48-4.98c1.57,1.43,3.33,2.55,5.28,3.36,1.95.82,3.77,1.22,5.45,1.22s2.96-.31,3.9-.94c.95-.63,1.42-1.48,1.42-2.55,0-.87-.29-1.59-.86-2.16s-1.31-1.03-2.2-1.38c-.89-.35-2.1-.74-3.64-1.18-2.1-.61-3.81-1.21-5.14-1.79-1.33-.58-2.47-1.46-3.41-2.64-.95-1.18-1.42-2.73-1.42-4.65,0-1.78.48-3.33,1.44-4.65.96-1.32,2.32-2.35,4.08-3.08,1.76-.73,3.79-1.09,6.1-1.09,2.01,0,4,.29,5.96.87,1.97.58,3.72,1.37,5.26,2.36l-2.39,5.11c-1.6-.96-3.23-1.7-4.9-2.23Z"/>
  </g>
</svg>